<?xml version="1.0" standalone="no"?>
<!DOCTYPE svg PUBLIC "-//W3C//DTD SVG 20010904//EN"
 "http://www.w3.org/TR/2001/REC-SVG-20010904/DTD/svg10.dtd">
<svg version="1.0" xmlns="http://www.w3.org/2000/svg"
 width="203.000000pt" height="181.000000pt" viewBox="0 0 203.000000 181.000000"
 preserveAspectRatio="xMidYMid meet">

<g transform="translate(0.000000,181.000000) scale(0.100000,-0.100000)"
fill="#000000" stroke="none">
<path d="M919 1691 c-531 -74 -844 -635 -624 -1118 100 -219 274 -368 512
-439 127 -38 299 -38 426 0 140 42 235 96 336 191 243 228 315 597 175 903
-76 167 -206 302 -371 386 -123 62 -321 95 -454 77z m-494 -691 c101 -62 61
-214 -59 -227 -38 -5 -46 -3 -46 11 0 12 9 16 36 16 46 0 70 14 90 52 33 63
-8 136 -82 142 -51 5 -58 26 -9 26 21 0 52 -9 70 -20z m145 -106 c0 -96 -3
-125 -12 -122 -9 3 -14 37 -16 113 -3 112 0 135 18 135 6 0 10 -46 10 -126z
m256 112 c28 -21 11 -30 -29 -15 -72 26 -139 -21 -139 -97 0 -50 45 -94 96
-94 54 0 66 8 66 46 0 32 -2 34 -34 34 -19 0 -38 5 -41 10 -4 6 13 10 44 10
l51 0 0 -49 c0 -55 -12 -69 -62 -77 -76 -13 -148 50 -148 130 0 31 7 45 39 77
34 35 44 39 88 39 27 0 58 -6 69 -14z m191 -8 c26 -24 30 -65 9 -93 -11 -16
-11 -23 -1 -40 7 -11 16 -37 19 -57 6 -31 4 -37 -8 -32 -8 3 -18 20 -22 37 -9
46 -22 57 -65 57 -28 0 -39 4 -39 15 0 11 11 15 37 15 40 0 73 23 73 51 0 25
-38 49 -77 49 -18 0 -33 5 -33 10 0 20 83 11 107 -12z m113 -68 c0 -105 14
-130 75 -130 61 0 75 25 75 131 0 68 3 90 13 87 8 -3 13 -32 15 -84 2 -70 0
-84 -20 -114 -43 -64 -128 -63 -168 2 -15 25 -20 51 -20 109 0 42 3 79 7 82
18 18 23 0 23 -83z m590 80 c0 -5 -18 -10 -40 -10 l-40 0 0 -115 c0 -70 -4
-115 -10 -115 -6 0 -10 45 -10 115 l0 116 -82 -3 -83 -3 -3 -112 c-4 -150 -22
-148 -22 2 l0 115 -40 0 c-22 0 -40 5 -40 10 0 6 68 10 185 10 117 0 185 -4
185 -10z"/>
</g>
</svg>
